<svg id="Layer_1" data-name="Layer 1" xmlns="http://www.w3.org/2000/svg" viewBox="0 0 324.34 324.93"><defs><style>.cls-1{fill:#02205f;}.cls-2{fill:#49b649;}.cls-3{fill:#e33126;}.cls-4{opacity:0.36;}.cls-5{fill:#f3f2f2;}.cls-6{fill:#e5e5e5;}</style></defs><path class="cls-1" d="M274.82,223.18a250.09,250.09,0,0,1-92.08,76.42c-1.59.8-3.22,1.57-4.87,2.33a251.76,251.76,0,0,1-37.53,13.73c-1.45.41-2.9.8-4.36,1.16A251.9,251.9,0,0,1,0,314.26V258.71q2.55-.16,5.1-.36a2.22,2.22,0,0,0,.38,0c2.2-.19,4.4-.4,6.59-.65a.25.25,0,0,0,.15,0l.27,0,.77-.09c1.24-.13,2.5-.29,3.73-.46l.92-.13.29,0c.32,0,.63-.08.93-.12,2.09-.3,4.16-.6,6.25-1s4.1-.7,6.13-1.1l1.3-.25c1.7-.31,3.37-.67,5.06-1.05l.3-.07c.28,0,.51-.11.77-.16,1.43-.33,2.83-.64,4.26-1,.85-.19,1.67-.39,2.51-.61,1.95-.51,3.9-1,5.85-1.55l.31-.1.31-.09a3.15,3.15,0,0,1,.44-.11c1.54-.43,3.09-.88,4.61-1.36a3.8,3.8,0,0,1,.51-.16,2.54,2.54,0,0,0,.44-.13c1.65-.49,3.28-1,4.9-1.55.6-.19,1.2-.38,1.8-.6,1.36-.45,2.71-.91,4.05-1.41a.93.93,0,0,0,.2-.07c.87-.31,1.76-.62,2.63-1l4-1.5c1.1-.41,2.17-.84,3.24-1.29.72-.28,1.43-.57,2.14-.88l.37-.17.47-.19c.73-.3,1.45-.6,2.18-.93l.64-.28c1.51-.65,3-1.3,4.49-2s3.22-1.49,4.8-2.27c.28-.12.54-.25.8-.39.74-.37,1.48-.75,2.21-1.1l.38-.18q1.45-.7,2.88-1.47l.08,0c1.28-.65,2.53-1.32,3.8-2l.13-.07q2.25-1.22,4.45-2.48c.73-.4,1.48-.83,2.21-1.26l2.18-1.29c1.94-1.16,3.85-2.35,5.79-3.57,1.11-.69,2.22-1.42,3.33-2.14,1.47-1,2.93-1.95,4.39-3q1.8-1.23,3.6-2.51c.35-.26.7-.51,1.08-.77.17-.12.35-.26.52-.37l.48-.36c.79-.58,1.6-1.17,2.37-1.76,1.28-1,2.53-1.92,3.81-2.91.89-.69,1.8-1.4,2.69-2.12,1.18-.94,2.35-1.89,3.53-2.86l.62-.52,1.18-1c1.17-1,2.35-2,3.5-3l.14-.11a1,1,0,0,0,.18-.17c.72-.61,1.42-1.25,2.1-1.89.93-.8,1.79-1.6,2.68-2.43.11-.08.22-.19.32-.28l.57-.56c1.26-1.15,2.49-2.33,3.7-3.52s2.37-2.36,3.55-3.55,2.34-2.39,3.5-3.62l2-2.15c1.73-1.86,3.41-3.76,5.1-5.71l1.68-1.93c.89-1,1.8-2.14,2.68-3.22a1.68,1.68,0,0,0,.24-.28c1.1-1.33,2.18-2.68,3.24-4,.29-.36.58-.71.86-1.1s.55-.73.85-1.1l.39-.52.2-.25,1.11-1.45,2.16-2.92c1.05-1.45,2.1-2.9,3.13-4.36.5-.71,1-1.42,1.45-2.15h0a.11.11,0,0,0,.06-.09A250,250,0,0,0,234.3,34.82l.06-.51A251,251,0,0,0,235.71,2.6c0-.87,0-1.73-.06-2.6h77.8q1.69,5.54,3.11,11.15c1.19,4.71,2.27,9.48,3.17,14.26.29,1.44.55,2.88.79,4.36.35,1.86.66,3.75,1,5.67s.53,3.59.75,5.38A250.73,250.73,0,0,1,274.82,223.18Z"/><path class="cls-2" d="M234.36,34.31l-.06.51A256.53,256.53,0,0,1,187,156.37c30.52-41.75,35.43-98.63,13.48-145.29a116.79,116.79,0,0,0-6-11.08H236A258.52,258.52,0,0,1,234.36,34.31Z"/><path class="cls-3" d="M183.84,160.63l-.39.52c-.3.37-.58.74-.85,1.1s-.57.74-.86,1.1c-1.06,1.35-2.14,2.7-3.24,4a1.68,1.68,0,0,1-.24.28c-.88,1.08-1.79,2.17-2.68,3.22l-1.68,1.93c-1.69,1.95-3.37,3.85-5.1,5.71l-2,2.15c-1.16,1.23-2.32,2.43-3.5,3.62s-2.36,2.38-3.55,3.55-2.44,2.37-3.7,3.52l-.57.56c-.1.09-.21.2-.32.28-.89.83-1.75,1.63-2.68,2.43-.68.64-1.4,1.27-2.1,1.89a1,1,0,0,1-.18.17l-.14.11c-1.15,1-2.33,2-3.5,3l-1.18,1-.62.52c-1.18,1-2.35,1.92-3.53,2.86-.89.72-1.8,1.43-2.69,2.12-1.28,1-2.53,1.95-3.81,2.91-.77.59-1.58,1.18-2.37,1.76l-.48.36c-.17.11-.35.25-.52.37-.38.26-.73.51-1.08.77q-1.8,1.28-3.6,2.51c-1.46,1-2.92,2-4.39,3-1.11.72-2.22,1.45-3.33,2.14-1.94,1.22-3.85,2.41-5.79,3.57L111,225c-.73.43-1.48.86-2.21,1.26q-2.2,1.26-4.45,2.48l-.13.07c-1.27.69-2.52,1.36-3.8,2l-.08,0q-1.42.77-2.88,1.47l-.38.18c-.73.35-1.47.73-2.21,1.1-.26.14-.52.27-.8.39q-2.37,1.17-4.8,2.27c-1.49.69-3,1.34-4.49,2l-.64.28c-.73.33-1.45.63-2.18.93l-.47.19-.37.17c-.71.31-1.42.6-2.14.88-1.07.45-2.14.88-3.24,1.29l-4,1.5c-.87.34-1.76.65-2.63,1a.93.93,0,0,1-.2.07c-1.34.5-2.69,1-4.05,1.41-.6.22-1.2.41-1.8.6-1.62.53-3.25,1.06-4.9,1.55a2.54,2.54,0,0,1-.44.13,3.8,3.8,0,0,0-.51.16c-1.52.48-3.07.93-4.61,1.36a3.15,3.15,0,0,0-.44.11l-.31.09-.31.1c-2,.53-3.9,1-5.85,1.55-.84.22-1.66.42-2.51.61-1.43.35-2.83.66-4.26,1-.26,0-.49.12-.77.16l-.3.07c-1.69.38-3.36.74-5.06,1.05l-1.3.25c-2,.4-4.1.77-6.13,1.1s-4.16.66-6.25,1c-.3,0-.61.09-.93.12l-.29,0-.92.13c-1.23.17-2.49.33-3.73.46l-.77.09-.27,0a.25.25,0,0,1-.15,0c-2.19.25-4.39.46-6.59.65a2.22,2.22,0,0,1-.38,0q-2.55.19-5.1.36V194.53A141.42,141.42,0,0,0,183.84,160.63Z"/><g class="cls-4"><path class="cls-5" d="M215.66,139.19,321.47,35.44c.28,1.78.53,3.59.75,5.38l-96.59,94.69,56.16,3.87-80.48,62.43L182.74,299.6c-1.59.8-3.22,1.57-4.87,2.33l19.46-102.55,72.76-56.45Z"/><path class="cls-5" d="M320.52,29.77,277,45.67l-10.14,3.7-1.57-11L259.74,0h4.41l5.41,37.78.81,5.66,5.23-1.91,44.13-16.12C320,26.85,320.28,28.29,320.52,29.77Z"/><path class="cls-5" d="M140.34,315.66c-1.45.41-2.9.8-4.36,1.16L114.5,279.21,111,273l-6.78-.59L0,263.28v-4.39l104.61,9.16,9,.79,4.71,8.26Z"/></g><path class="cls-6" d="M194.07,195.52a8.43,8.43,0,1,1,1.75,11.78A8.42,8.42,0,0,1,194.07,195.52Z"/><path class="cls-6" d="M105.72,266a8.42,8.42,0,1,1,1.75,11.78A8.43,8.43,0,0,1,105.72,266Z"/><path class="cls-6" d="M209.75,133a8.43,8.43,0,1,1,1.75,11.78A8.43,8.43,0,0,1,209.75,133Z"/><circle class="cls-6" cx="281.5" cy="139.47" r="8.43"/><path class="cls-6" d="M261.76,41.11a8.43,8.43,0,1,1,1.75,11.79A8.44,8.44,0,0,1,261.76,41.11Z"/></svg>